<?xml version="1.0" standalone="no"?>
<!DOCTYPE svg PUBLIC "-//W3C//DTD SVG 20010904//EN"
 "http://www.w3.org/TR/2001/REC-SVG-20010904/DTD/svg10.dtd">
<svg version="1.0" xmlns="http://www.w3.org/2000/svg"
 width="90.000000pt" height="90.000000pt" viewBox="0 0 90.000000 90.000000"
 preserveAspectRatio="xMidYMid meet">

<g transform="translate(0.000000,90.000000) scale(0.100000,-0.100000)"
fill="#000000" stroke="none">
<path d="M369 777 c-104 -43 -169 -113 -205 -219 -21 -65 -15 -175 14 -240 46
-104 162 -192 270 -205 l52 -6 0 45 0 45 60 16 c185 52 249 268 121 410 -37
42 -120 87 -158 87 -20 0 -23 5 -23 45 l0 45 -37 0 c-21 0 -63 -11 -94 -23z
m61 -56 c0 -13 -11 -23 -34 -31 -40 -13 -108 -79 -133 -129 -26 -53 -24 -164
4 -216 27 -52 78 -100 126 -120 25 -10 37 -22 37 -35 0 -17 -4 -18 -25 -10
-50 19 -81 39 -116 77 -55 57 -72 98 -77 184 -4 66 -1 84 20 130 31 67 78 115
143 145 60 29 55 28 55 5z m139 -129 c48 -24 73 -62 78 -119 13 -130 -118
-215 -231 -150 -54 31 -78 78 -73 145 6 86 66 142 152 142 22 0 55 -8 74 -18z"/>
<path d="M456 545 c-41 -22 -55 -44 -56 -88 0 -29 7 -45 29 -68 39 -38 87 -39
130 -3 56 47 37 137 -36 165 -31 12 -33 12 -67 -6z"/>
</g>
</svg>
